<svg width="24" height="24" viewBox="0 0 24 24" fill="none" xmlns="http://www.w3.org/2000/svg">
<path fill-rule="evenodd" clip-rule="evenodd" d="M13.9443 2.46969C14.1399 2.27405 14.4274 2.20201 14.6922 2.28226C18.776 3.52004 21.75 7.31322 21.75 11.803C21.75 17.2966 17.2966 21.75 11.803 21.75C7.31322 21.75 3.52004 18.776 2.28226 14.6922C2.20201 14.4274 2.27405 14.1399 2.46969 13.9443C2.66533 13.7487 2.95279 13.6766 3.21757 13.7569C3.99328 13.992 4.81699 14.1187 5.67165 14.1187C10.3368 14.1187 14.1187 10.3368 14.1187 5.67165C14.1187 4.81699 13.992 3.99328 13.7569 3.21757C13.6766 2.95279 13.7487 2.66533 13.9443 2.46969ZM15.5122 4.21154C15.5823 4.68836 15.6187 5.17593 15.6187 5.67165C15.6187 11.1652 11.1652 15.6187 5.67165 15.6187C5.17593 15.6187 4.68836 15.5823 4.21154 15.5122C5.58526 18.3184 8.4693 20.25 11.803 20.25C16.4682 20.25 20.25 16.4682 20.25 11.803C20.25 8.4693 18.3184 5.58526 15.5122 4.21154Z" fill="#808080"/>
</svg>
