<svg width="24" height="24" viewBox="0 0 24 24" fill="none" xmlns="http://www.w3.org/2000/svg">
<rect width="24" height="24" fill="#5964E0"/>
<path fill-rule="evenodd" clip-rule="evenodd" d="M10.5 2.75C6.21979 2.75 2.75 6.21979 2.75 10.5C2.75 14.7802 6.21979 18.25 10.5 18.25C14.7802 18.25 18.25 14.7802 18.25 10.5C18.25 6.21979 14.7802 2.75 10.5 2.75ZM1.25 10.5C1.25 5.39137 5.39137 1.25 10.5 1.25C15.6086 1.25 19.75 5.39137 19.75 10.5C19.75 15.6086 15.6086 19.75 10.5 19.75C5.39137 19.75 1.25 15.6086 1.25 10.5ZM18.9697 16.1772C19.2626 15.8844 19.7374 15.8843 20.0303 16.1772L21.952 18.0989C23.016 19.1629 23.016 20.888 21.952 21.952C20.888 23.016 19.1629 23.016 18.0989 21.952L16.1772 20.0303C15.8844 19.7374 15.8843 19.2626 16.1772 18.9697C16.4701 18.6768 16.945 18.6768 17.2379 18.9697L19.1596 20.8913C19.6378 21.3696 20.4131 21.3696 20.8914 20.8913C21.3696 20.4131 21.3696 19.6378 20.8914 19.1596L18.9697 17.2379C18.6768 16.945 18.6768 16.4701 18.9697 16.1772Z" fill="#808080"/>
</svg>
