<svg width="24" height="24" viewBox="0 0 24 24" fill="none" xmlns="http://www.w3.org/2000/svg">
<path fill-rule="evenodd" clip-rule="evenodd" d="M12 1.25C12.4142 1.25 12.75 1.58579 12.75 2V3C12.75 3.41421 12.4142 3.75 12 3.75C11.5858 3.75 11.25 3.41421 11.25 3V2C11.25 1.58579 11.5858 1.25 12 1.25ZM19.6014 4.39861C19.8943 4.6915 19.8943 5.16638 19.6014 5.45927L18.8943 6.16638C18.6014 6.45927 18.1265 6.45927 17.8336 6.16638C17.5407 5.87348 17.5407 5.39861 17.8336 5.10572L18.5407 4.39861C18.8336 4.10572 19.3085 4.10572 19.6014 4.39861ZM4.39861 4.39861C4.6915 4.10572 5.16638 4.10572 5.45927 4.39861L6.16638 5.10572C6.45927 5.39861 6.45927 5.87348 6.16638 6.16638C5.87348 6.45927 5.39861 6.45927 5.10572 6.16638L4.39861 5.45927C4.10572 5.16638 4.10572 4.6915 4.39861 4.39861ZM12 6.75C9.1005 6.75 6.75 9.1005 6.75 12C6.75 14.8995 9.1005 17.25 12 17.25C14.8995 17.25 17.25 14.8995 17.25 12C17.25 9.1005 14.8995 6.75 12 6.75ZM5.25 12C5.25 8.27208 8.27208 5.25 12 5.25C15.7279 5.25 18.75 8.27208 18.75 12C18.75 15.7279 15.7279 18.75 12 18.75C8.27208 18.75 5.25 15.7279 5.25 12ZM1.25 12C1.25 11.5858 1.58579 11.25 2 11.25H3C3.41421 11.25 3.75 11.5858 3.75 12C3.75 12.4142 3.41421 12.75 3 12.75H2C1.58579 12.75 1.25 12.4142 1.25 12ZM20.25 12C20.25 11.5858 20.5858 11.25 21 11.25H22C22.4142 11.25 22.75 11.5858 22.75 12C22.75 12.4142 22.4142 12.75 22 12.75H21C20.5858 12.75 20.25 12.4142 20.25 12ZM6.16638 17.8336C6.45927 18.1265 6.45927 18.6014 6.16638 18.8943L5.45927 19.6014C5.16638 19.8943 4.6915 19.8943 4.39861 19.6014C4.10572 19.3085 4.10572 18.8336 4.39861 18.5407L5.10572 17.8336C5.39861 17.5407 5.87348 17.5407 6.16638 17.8336ZM17.8336 17.8336C18.1265 17.5407 18.6014 17.5407 18.8943 17.8336L19.6014 18.5407C19.8943 18.8336 19.8943 19.3085 19.6014 19.6014C19.3085 19.8943 18.8336 19.8943 18.5407 19.6014L17.8336 18.8943C17.5407 18.6014 17.5407 18.1265 17.8336 17.8336ZM12 20.25C12.4142 20.25 12.75 20.5858 12.75 21V22C12.75 22.4142 12.4142 22.75 12 22.75C11.5858 22.75 11.25 22.4142 11.25 22V21C11.25 20.5858 11.5858 20.25 12 20.25Z" fill="#808080"/>
</svg>
